<svg width="40" height="40" viewBox="0 0 40 40" fill="none" xmlns="http://www.w3.org/2000/svg">
<path d="M32.9976 10.8512V31.083C32.9976 33.2452 31.3096 35 29.2283 35H10.7693C8.68799 35 7 33.2464 7 31.083V10.8512C7 8.84802 8.4477 7.19628 10.315 6.96281V25.523C10.315 26.1775 11.1172 26.5874 11.7639 26.2645L15.7125 24.2911C16.009 24.142 16.3736 24.142 16.6701 24.2911L20.6187 26.2645C21.2654 26.5874 22.0675 26.1775 22.0675 25.523V6.93549H29.2307C31.312 6.93549 33 8.68905 33 10.8524L32.9976 10.8512Z" fill="#DDF824"/>
<path d="M22.4074 5.93326C22.4074 5.44227 21.9362 5.04615 21.3606 5.05256C20.3227 5.0641 18.699 5.05256 17.3453 5.03461V5C17.3453 5 16.8652 5.00897 16.1482 5.01923C15.4312 5.00897 14.9498 5 14.9498 5V5.03461C13.5974 5.05128 11.9736 5.0641 10.9357 5.05256C10.3601 5.04615 9.88892 5.44227 9.88892 5.93326V26.3765C9.88892 27.0521 10.7434 27.4751 11.4311 27.1418L15.6362 25.1048C15.9521 24.951 16.3405 24.951 16.6563 25.1048L20.8614 27.1418C21.5504 27.4751 22.4036 27.0508 22.4036 26.3765V5.93326H22.4074Z" fill="#C1C1CA"/>
<path d="M16.1254 14.9216L17.4138 17.5014L20.2962 17.9161L18.2108 19.9238L18.7036 22.7608L16.1254 21.421L13.5472 22.7608L14.04 19.9238L11.9546 17.9161L14.837 17.5014L16.1254 14.9216Z" fill="#E8FE54"/>
</svg>
