<svg width="40" height="40" viewBox="0 0 40 40" fill="none" xmlns="http://www.w3.org/2000/svg">
<path d="M11.5503 22.3645H9.60831C8.16778 22.3645 7 23.8826 7 25.7553V29.6091C7 31.4818 8.16778 32.9999 9.60831 32.9999H11.5503C12.9908 32.9999 14.1586 31.4818 14.1586 29.6091V25.7553C14.1586 23.8826 12.9908 22.3645 11.5503 22.3645Z" fill="#80EB55"/>
<path d="M20.9921 13.2684H19.0484C17.6083 13.2684 16.4409 14.786 16.4409 16.6581V29.6103C16.4409 31.4824 17.6083 33 19.0484 33H20.9921C22.4321 33 23.5995 31.4824 23.5995 29.6103V16.6581C23.5995 14.786 22.4321 13.2684 20.9921 13.2684Z" fill="#80EB55"/>
<path d="M30.3916 7H28.4497C27.0091 7 25.8414 8.51813 25.8414 10.3908V29.609C25.8414 31.4817 27.0091 32.9998 28.4497 32.9998H30.3916C31.8322 32.9998 33 31.4817 33 29.609V10.3908C33 8.51813 31.8322 7 30.3916 7Z" fill="#80EB55"/>
</svg>
