<svg width="40" height="40" viewBox="0 0 40 40" fill="none" xmlns="http://www.w3.org/2000/svg">
<path d="M23.9841 6H8.01591C6.35027 6 5 7.65388 5 9.69405V30.306C5 32.3461 6.35027 34 8.01591 34H23.9841C25.6497 34 27 32.3461 27 30.306V9.69405C27 7.65388 25.6497 6 23.9841 6Z" fill="#80EB55"/>
<path d="M19.9653 30.9943L15.178 32.1634C14.5858 32.3077 14.0518 31.7683 14.1942 31.1687L15.3452 26.3166C15.4059 26.0594 15.536 25.8236 15.7206 25.6367L29.6502 11.5332C30.23 10.9461 31.1692 10.9461 31.7478 11.5332L34.5651 14.3858C35.145 14.9728 35.145 15.9237 34.5651 16.5095L20.6343 30.6142C20.4497 30.8011 20.218 30.9328 19.9641 30.9943H19.9653Z" fill="#C1C1CA"/>
<path d="M20.9024 13.3606H9.45356C8.94661 13.3606 8.53674 12.7808 8.53674 12.0675C8.53674 11.3525 8.94781 10.7744 9.45356 10.7744H20.9024C21.4093 10.7744 21.8192 11.3542 21.8192 12.0675C21.8192 12.7825 21.4081 13.3606 20.9024 13.3606Z" fill="white"/>
<path d="M15.8413 18.1352H9.40606C8.92538 18.1352 8.53674 17.5554 8.53674 16.8421C8.53674 16.1271 8.92651 15.549 9.40606 15.549H15.8413C16.3219 15.549 16.7106 16.1288 16.7106 16.8421C16.7106 17.5571 16.3208 18.1352 15.8413 18.1352Z" fill="white"/>
</svg>
