<svg width="40" height="40" viewBox="0 0 40 40" fill="none" xmlns="http://www.w3.org/2000/svg">
<path d="M18.0375 8.98407C10.8371 8.98407 5 14.808 5 21.992C5 29.1761 10.8371 35 18.0375 35C25.2379 35 31.075 29.1761 31.075 21.992C31.075 14.808 25.2379 8.98407 18.0375 8.98407ZM18.0375 31.1895C12.946 31.1895 8.81913 27.071 8.81913 21.992C8.81913 16.9131 12.9471 12.7945 18.0375 12.7945C23.128 12.7945 27.2559 16.9131 27.2559 21.992C27.2559 27.071 23.128 31.1895 18.0375 31.1895Z" fill="#DDF824"/>
<path d="M18.0376 15.5797C14.488 15.5797 11.6107 18.4504 11.6107 21.992C11.6107 25.5335 14.488 28.4043 18.0376 28.4043C21.5871 28.4043 24.4644 25.5325 24.4644 21.992C24.4644 18.4515 21.5871 15.5797 18.0376 15.5797Z" fill="#DDF824"/>
<path d="M34.64 10.3597H29.9875C29.7892 10.3597 29.6281 10.199 29.6281 10.0012V5.35914C29.6281 5.03971 29.2408 4.87999 29.0146 5.10565L25.559 8.55342C25.4919 8.6204 25.4537 8.71211 25.4537 8.80691V12.3989L17.1906 20.6433C16.6019 21.2306 16.6019 22.1817 17.1906 22.769C17.7793 23.3564 18.7325 23.3564 19.3212 22.769L27.5842 14.5247H31.1844C31.2794 14.5247 31.3714 14.4866 31.4385 14.4196L34.8941 10.9718C35.1203 10.7461 34.9602 10.3597 34.64 10.3597Z" fill="#C1C1CA"/>
</svg>
