<svg width="25" height="25" viewBox="0 0 25 25" fill="none" xmlns="http://www.w3.org/2000/svg">
<path d="M7.01603 14.323L5.52603 20.775C5.47989 20.9704 5.49374 21.1751 5.56577 21.3625C5.6378 21.5499 5.76467 21.7112 5.9298 21.8253C6.09492 21.9395 6.29064 22.0012 6.49138 22.0024C6.69212 22.0036 6.88855 21.9442 7.05503 21.832L12.5 18.202L17.945 21.832C18.1154 21.9451 18.3162 22.0033 18.5207 21.9988C18.7251 21.9944 18.9232 21.9274 19.0884 21.8069C19.2536 21.6865 19.378 21.5183 19.4448 21.3251C19.5116 21.1318 19.5176 20.9228 19.462 20.726L17.633 14.326L22.169 10.244C22.3143 10.1132 22.4181 9.94266 22.4674 9.75351C22.5168 9.56436 22.5097 9.36488 22.4469 9.17974C22.3841 8.99461 22.2685 8.83193 22.1142 8.71183C21.96 8.59173 21.7739 8.51947 21.579 8.504L15.878 8.05L13.411 2.589C13.3324 2.41316 13.2045 2.26384 13.0428 2.15906C12.8812 2.05429 12.6927 1.99854 12.5 1.99854C12.3074 1.99854 12.1189 2.05429 11.9572 2.15906C11.7956 2.26384 11.6677 2.41316 11.589 2.589L9.12203 8.05L3.42103 8.503C3.22948 8.51818 3.04636 8.58821 2.89358 8.70473C2.7408 8.82125 2.62482 8.97932 2.55952 9.16003C2.49422 9.34074 2.48236 9.53644 2.52537 9.72371C2.56838 9.91098 2.66443 10.0819 2.80203 10.216L7.01603 14.323Z" fill="#DDF824"/>
</svg>
