<svg width="25" height="25" viewBox="0 0 25 25" fill="none" xmlns="http://www.w3.org/2000/svg">
<path d="M7.51603 15.323L6.02603 21.775C5.97989 21.9704 5.99374 22.1751 6.06577 22.3625C6.1378 22.5499 6.26467 22.7112 6.4298 22.8253C6.59492 22.9395 6.79064 23.0012 6.99138 23.0024C7.19212 23.0036 7.38855 22.9442 7.55503 22.832L13 19.202L18.445 22.832C18.6154 22.9451 18.8162 23.0033 19.0207 22.9988C19.2251 22.9944 19.4232 22.9274 19.5884 22.8069C19.7536 22.6865 19.878 22.5183 19.9448 22.3251C20.0116 22.1318 20.0176 21.9228 19.962 21.726L18.133 15.326L22.669 11.244C22.8143 11.1132 22.9181 10.9427 22.9674 10.7535C23.0168 10.5644 23.0097 10.3649 22.9469 10.1797C22.8841 9.99461 22.7685 9.83193 22.6142 9.71183C22.46 9.59173 22.2739 9.51947 22.079 9.504L16.378 9.05L13.911 3.589C13.8324 3.41316 13.7045 3.26384 13.5428 3.15906C13.3812 3.05429 13.1927 2.99854 13 2.99854C12.8074 2.99854 12.6189 3.05429 12.4572 3.15906C12.2956 3.26384 12.1677 3.41316 12.089 3.589L9.62203 9.05L3.92103 9.503C3.72948 9.51818 3.54636 9.58821 3.39358 9.70473C3.2408 9.82125 3.12482 9.97932 3.05952 10.16C2.99422 10.3407 2.98236 10.5364 3.02537 10.7237C3.06838 10.911 3.16443 11.0819 3.30203 11.216L7.51603 15.323ZM10.369 10.997C10.5475 10.9829 10.7189 10.9211 10.8653 10.818C11.0117 10.7149 11.1277 10.5743 11.201 10.411L13 6.43L14.799 10.411C14.8724 10.5743 14.9883 10.7149 15.1347 10.818C15.2811 10.9211 15.4525 10.9829 15.631 10.997L19.603 11.312L16.332 14.256C16.048 14.512 15.935 14.906 16.039 15.274L17.292 19.659L13.556 17.168C13.392 17.0579 13.199 16.9992 13.0015 16.9992C12.804 16.9992 12.611 17.0579 12.447 17.168L8.54303 19.771L9.59303 15.225C9.63153 15.0578 9.62636 14.8835 9.57802 14.7189C9.52969 14.5543 9.43981 14.4048 9.31703 14.285L6.27903 11.323L10.369 10.997Z" fill="#FFFFFF"/>
</svg>
