<svg width="18" height="18" viewBox="0 0 18 18" fill="none" xmlns="http://www.w3.org/2000/svg">
<path fill-rule="evenodd" clip-rule="evenodd" d="M8.4 12.6C10.8853 12.6 12.9 10.5853 12.9 8.10001C12.9 5.61473 10.8853 3.60001 8.4 3.60001C5.91472 3.60001 3.9 5.61473 3.9 8.10001C3.9 10.5853 5.91472 12.6 8.4 12.6ZM8.4 13.5C11.3823 13.5 13.8 11.0824 13.8 8.10001C13.8 5.11767 11.3823 2.70001 8.4 2.70001C5.41766 2.70001 3 5.11767 3 8.10001C3 11.0824 5.41766 13.5 8.4 13.5Z" fill="#6C7072" stroke="#6C7072"/>
<path fill-rule="evenodd" clip-rule="evenodd" d="M14.4176 15.3L11.4 12.2778L11.9824 11.7L15 14.7222L14.4176 15.3Z" fill="#6C7072" stroke="#6C7072"/>
</svg>
