<svg viewBox="0 0 30 30" fill="none" xmlns="http://www.w3.org/2000/svg">
<path d="M27.896 7.82627C27.7642 7.50063 27.5118 7.24185 27.1942 7.10662C27.038 7.03833 26.8702 7.00211 26.7004 7H20.2023C19.8576 7 19.527 7.14041 19.2833 7.39034C19.0396 7.64026 18.9026 7.97924 18.9026 8.33269C18.9026 8.68614 19.0396 9.02512 19.2833 9.27504C19.527 9.52497 19.8576 9.66538 20.2023 9.66538H23.5683L16.3034 17.1151L12.0276 12.7172C11.9068 12.5923 11.7631 12.4932 11.6047 12.4255C11.4463 12.3579 11.2765 12.323 11.1049 12.323C10.9333 12.323 10.7635 12.3579 10.6051 12.4255C10.4467 12.4932 10.303 12.5923 10.1822 12.7172L2.38443 20.7134C2.26261 20.8373 2.16593 20.9847 2.09995 21.1471C2.03397 21.3095 2 21.4837 2 21.6596C2 21.8355 2.03397 22.0097 2.09995 22.1721C2.16593 22.3345 2.26261 22.4819 2.38443 22.6058C2.50524 22.7307 2.64898 22.8298 2.80735 22.8975C2.96573 22.9652 3.13559 23 3.30716 23C3.47872 23 3.64859 22.9652 3.80696 22.8975C3.96533 22.8298 4.10907 22.7307 4.22989 22.6058L11.1049 15.5425L15.3807 19.9404C15.5015 20.0653 15.6452 20.1645 15.8036 20.2321C15.962 20.2998 16.1318 20.3346 16.3034 20.3346C16.475 20.3346 16.6448 20.2998 16.8032 20.2321C16.9616 20.1645 17.1053 20.0653 17.2261 19.9404L25.4008 11.5445V14.9961C25.4008 15.3496 25.5377 15.6886 25.7814 15.9385C26.0251 16.1884 26.3557 16.3288 26.7004 16.3288C27.0451 16.3288 27.3756 16.1884 27.6194 15.9385C27.8631 15.6886 28 15.3496 28 14.9961V8.33269C27.9979 8.15854 27.9626 7.98649 27.896 7.82627Z" fill="black"/>
</svg>
