<svg width="18" height="18" viewBox="0 0 18 18" fill="none" xmlns="http://www.w3.org/2000/svg">
<path d="M14.4 7.80002C14.4 12 8.99998 15.6 8.99998 15.6C8.99998 15.6 3.59998 12 3.59998 7.80002C3.59998 6.36786 4.1689 4.99434 5.1816 3.98165C6.1943 2.96895 7.56781 2.40002 8.99998 2.40002C10.4321 2.40002 11.8057 2.96895 12.8184 3.98165C13.831 4.99434 14.4 6.36786 14.4 7.80002Z" stroke="#C1C1CA" stroke-linecap="round" stroke-linejoin="round"/>
<path d="M8.99998 9.60002C9.99409 9.60002 10.8 8.79414 10.8 7.80002C10.8 6.80591 9.99409 6.00002 8.99998 6.00002C8.00586 6.00002 7.19998 6.80591 7.19998 7.80002C7.19998 8.79414 8.00586 9.60002 8.99998 9.60002Z" stroke="#C1C1CA" stroke-linecap="round" stroke-linejoin="round"/>
</svg>
