<svg width="18" height="18" viewBox="0 0 18 18" fill="none" xmlns="http://www.w3.org/2000/svg">
<path fill-rule="evenodd" clip-rule="evenodd" d="M9 15C8.68648 15.467 8.68617 15.4668 8.68617 15.4668L8.68095 15.4633L8.66846 15.4548C8.65786 15.4475 8.64277 15.4371 8.62347 15.4237C8.58489 15.3968 8.5295 15.3576 8.45968 15.3068C8.32011 15.2053 8.12258 15.0572 7.88639 14.8678C7.41489 14.4897 6.78479 13.9436 6.15281 13.2718C4.91138 11.9522 3.5625 10.0428 3.5625 7.90909C3.5625 6.4592 4.13443 5.0679 5.15372 4.04148C6.17315 3.01493 7.55662 2.4375 9 2.4375C10.4434 2.4375 11.8269 3.01493 12.8463 4.04148C13.8656 5.0679 14.4375 6.4592 14.4375 7.90909C14.4375 10.0428 13.0886 11.9522 11.8472 13.2718C11.2152 13.9436 10.5851 14.4897 10.1136 14.8678C9.87742 15.0572 9.67989 15.2053 9.54032 15.3068C9.4705 15.3576 9.41511 15.3968 9.37653 15.4237C9.35723 15.4371 9.34214 15.4475 9.33154 15.4548L9.31905 15.4633L9.31424 15.4665C9.31424 15.4665 9.31352 15.467 9 15ZM9 15L9.31424 15.4665C9.12461 15.5938 8.87581 15.5941 8.68617 15.4668L9 15ZM6.8125 7.90909C6.8125 6.69839 7.78819 5.71023 9 5.71023C10.2118 5.71023 11.1875 6.69839 11.1875 7.90909C11.1875 9.11979 10.2118 10.108 9 10.108C7.78819 10.108 6.8125 9.11979 6.8125 7.90909Z" fill="#090A0A"/>
<path d="M8.68617 15.4668C8.68617 15.4668 8.68648 15.467 9 15M8.68617 15.4668C8.87581 15.5941 9.12461 15.5938 9.31424 15.4665M8.68617 15.4668L9 15M8.68617 15.4668L8.68095 15.4633L8.66846 15.4548C8.65786 15.4475 8.64277 15.4371 8.62347 15.4237C8.58489 15.3968 8.5295 15.3576 8.45968 15.3068C8.32011 15.2053 8.12258 15.0572 7.88639 14.8678C7.41489 14.4897 6.78479 13.9436 6.15281 13.2718C4.91138 11.9522 3.5625 10.0428 3.5625 7.90909C3.5625 6.4592 4.13443 5.0679 5.15372 4.04148C6.17315 3.01493 7.55662 2.4375 9 2.4375C10.4434 2.4375 11.8269 3.01493 12.8463 4.04148C13.8656 5.0679 14.4375 6.4592 14.4375 7.90909C14.4375 10.0428 13.0886 11.9522 11.8472 13.2718C11.2152 13.9436 10.5851 14.4897 10.1136 14.8678C9.87742 15.0572 9.67989 15.2053 9.54032 15.3068C9.4705 15.3576 9.41511 15.3968 9.37653 15.4237C9.35723 15.4371 9.34214 15.4475 9.33154 15.4548L9.31905 15.4633L9.31424 15.4665M9 15C9.31352 15.467 9.31424 15.4665 9.31424 15.4665M9 15L9.31424 15.4665M9 5.71023C7.78819 5.71023 6.8125 6.69839 6.8125 7.90909C6.8125 9.11979 7.78819 10.108 9 10.108C10.2118 10.108 11.1875 9.11979 11.1875 7.90909C11.1875 6.69839 10.2118 5.71023 9 5.71023Z" stroke="black" stroke-linecap="round" stroke-linejoin="round"/>
</svg>
