<svg width="30" height="30" viewBox="0 0 30 30" fill="none" xmlns="http://www.w3.org/2000/svg">
<path d="M24 13C24 20 15 26 15 26C15 26 6 20 6 13C6 10.6131 6.94821 8.32387 8.63604 6.63604C10.3239 4.94821 12.6131 4 15 4C17.3869 4 19.6761 4.94821 21.364 6.63604C23.0518 8.32387 24 10.6131 24 13Z" stroke="#090A0A" stroke-width="1.5" stroke-linecap="round" stroke-linejoin="round"/>
<path d="M15 16C16.6569 16 18 14.6569 18 13C18 11.3431 16.6569 10 15 10C13.3431 10 12 11.3431 12 13C12 14.6569 13.3431 16 15 16Z" stroke="#090A0A" stroke-width="1.5" stroke-linecap="round" stroke-linejoin="round"/>
</svg>
