<svg width="25" height="25" viewBox="0 0 25 25" fill="none" xmlns="http://www.w3.org/2000/svg">
<path d="M12.3331 4C12.5541 4 12.7661 4.0878 12.9224 4.24408C13.0787 4.40036 13.1665 4.61232 13.1665 4.83333V7.33333C13.1665 7.55435 13.0787 7.76631 12.9224 7.92259C12.7661 8.07887 12.5541 8.16667 12.3331 8.16667C12.1121 8.16667 11.9001 8.07887 11.7439 7.92259C11.5876 7.76631 11.4998 7.55435 11.4998 7.33333V4.83333C11.4998 4.61232 11.5876 4.40036 11.7439 4.24408C11.9001 4.0878 12.1121 4 12.3331 4ZM12.3331 16.5C12.5541 16.5 12.7661 16.5878 12.9224 16.7441C13.0787 16.9004 13.1665 17.1123 13.1665 17.3333V19.8333C13.1665 20.0543 13.0787 20.2663 12.9224 20.4226C12.7661 20.5789 12.5541 20.6667 12.3331 20.6667C12.1121 20.6667 11.9001 20.5789 11.7439 20.4226C11.5876 20.2663 11.4998 20.0543 11.4998 19.8333V17.3333C11.4998 17.1123 11.5876 16.9004 11.7439 16.7441C11.9001 16.5878 12.1121 16.5 12.3331 16.5ZM19.5498 8.16667C19.6603 8.35807 19.6902 8.58552 19.633 8.799C19.5758 9.01248 19.4362 9.19449 19.2448 9.305L17.0798 10.555C16.985 10.6106 16.8801 10.6469 16.7712 10.6617C16.6623 10.6766 16.5516 10.6698 16.4453 10.6417C16.3391 10.6137 16.2394 10.5648 16.1521 10.4981C16.0648 10.4313 15.9916 10.3479 15.9367 10.2528C15.8817 10.1576 15.8461 10.0525 15.832 9.94351C15.8178 9.83453 15.8253 9.72382 15.8541 9.61776C15.8829 9.5117 15.9324 9.41238 15.9997 9.32552C16.0671 9.23867 16.1509 9.16599 16.2465 9.11167L18.4115 7.86167C18.6029 7.75116 18.8303 7.72122 19.0438 7.77842C19.2573 7.83562 19.4393 7.97527 19.5498 8.16667ZM8.72479 14.4167C8.83529 14.6081 8.86523 14.8355 8.80804 15.049C8.75084 15.2625 8.61118 15.4445 8.41979 15.555L6.25479 16.805C6.15998 16.8606 6.05511 16.8969 5.94622 16.9117C5.83734 16.9266 5.72658 16.9198 5.62033 16.8917C5.51408 16.8637 5.41444 16.8148 5.32714 16.7481C5.23984 16.6813 5.1666 16.5979 5.11165 16.5028C5.0567 16.4076 5.02112 16.3025 5.00695 16.1935C4.99279 16.0845 5.00032 15.9738 5.02911 15.8678C5.05791 15.7617 5.1074 15.6624 5.17473 15.5755C5.24207 15.4887 5.32592 15.416 5.42145 15.3617L7.58645 14.1117C7.77785 14.0012 8.00531 13.9712 8.21879 14.0284C8.43226 14.0856 8.61428 14.2253 8.72479 14.4167ZM19.5498 16.5C19.4393 16.6914 19.2573 16.831 19.0438 16.8882C18.8303 16.9454 18.6029 16.9155 18.4115 16.805L16.2465 15.555C16.0566 15.4437 15.9185 15.2618 15.8623 15.0491C15.806 14.8364 15.8362 14.61 15.9462 14.4194C16.0563 14.2288 16.2372 14.0895 16.4496 14.0319C16.6619 13.9742 16.8885 14.0029 17.0798 14.1117L19.2448 15.3617C19.4362 15.4722 19.5758 15.6542 19.633 15.8677C19.6902 16.0811 19.6603 16.3086 19.5498 16.5ZM8.72479 10.25C8.61428 10.4414 8.43226 10.5811 8.21879 10.6382C8.00531 10.6954 7.77785 10.6655 7.58645 10.555L5.42145 9.305C5.32592 9.25068 5.24207 9.178 5.17473 9.09115C5.1074 9.00429 5.05791 8.90497 5.02911 8.79891C5.00032 8.69285 4.99279 8.58214 5.00695 8.47316C5.02112 8.36417 5.0567 8.25907 5.11165 8.16389C5.1666 8.06872 5.23984 7.98535 5.32714 7.91859C5.41444 7.85184 5.51408 7.80301 5.62033 7.77492C5.72658 7.74683 5.83734 7.74003 5.94622 7.75492C6.05511 7.76981 6.15998 7.80609 6.25479 7.86167L8.41979 9.11167C8.61118 9.22218 8.75084 9.40419 8.80804 9.61767C8.86523 9.83115 8.83529 10.0586 8.72479 10.25Z" fill="black"/>
</svg>
