<svg width="18" height="18" viewBox="0 0 18 18" fill="none" xmlns="http://www.w3.org/2000/svg">
<path d="M8.4625 17.425V15.925C6.9 15.75 5.5595 15.1033 4.441 13.9848C3.322 12.8658 2.675 11.525 2.5 9.9625H1V8.4625H2.5C2.675 6.9 3.322 5.55925 4.441 4.44025C5.5595 3.32175 6.9 2.675 8.4625 2.5V1H9.9625V2.5C11.525 2.675 12.8658 3.32175 13.9848 4.44025C15.1033 5.55925 15.75 6.9 15.925 8.4625H17.425V9.9625H15.925C15.75 11.525 15.1033 12.8658 13.9848 13.9848C12.8658 15.1033 11.525 15.75 9.9625 15.925V17.425H8.4625ZM9.2125 14.4625C10.6625 14.4625 11.9 13.95 12.925 12.925C13.95 11.9 14.4625 10.6625 14.4625 9.2125C14.4625 7.7625 13.95 6.525 12.925 5.5C11.9 4.475 10.6625 3.9625 9.2125 3.9625C7.7625 3.9625 6.525 4.475 5.5 5.5C4.475 6.525 3.9625 7.7625 3.9625 9.2125C3.9625 10.6625 4.475 11.9 5.5 12.925C6.525 13.95 7.7625 14.4625 9.2125 14.4625ZM9.2125 12.2125C8.3875 12.2125 7.68125 11.9187 7.09375 11.3312C6.50625 10.7437 6.2125 10.0375 6.2125 9.2125C6.2125 8.3875 6.50625 7.68125 7.09375 7.09375C7.68125 6.50625 8.3875 6.2125 9.2125 6.2125C10.0375 6.2125 10.7437 6.50625 11.3312 7.09375C11.9187 7.68125 12.2125 8.3875 12.2125 9.2125C12.2125 10.0375 11.9187 10.7437 11.3312 11.3312C10.7437 11.9187 10.0375 12.2125 9.2125 12.2125ZM9.2125 10.7125C9.625 10.7125 9.97825 10.5655 10.2723 10.2715C10.5658 9.978 10.7125 9.625 10.7125 9.2125C10.7125 8.8 10.5658 8.44675 10.2723 8.15275C9.97825 7.85925 9.625 7.7125 9.2125 7.7125C8.8 7.7125 8.447 7.85925 8.1535 8.15275C7.8595 8.44675 7.7125 8.8 7.7125 9.2125C7.7125 9.625 7.8595 9.978 8.1535 10.2715C8.447 10.5655 8.8 10.7125 9.2125 10.7125Z" fill="black"/>
</svg>
