<svg width="30" height="30" viewBox="0 0 30 30" fill="none" xmlns="http://www.w3.org/2000/svg">
<path fill-rule="evenodd" clip-rule="evenodd" d="M14 21C18.1421 21 21.5 17.6421 21.5 13.5C21.5 9.35786 18.1421 6 14 6C9.85786 6 6.5 9.35786 6.5 13.5C6.5 17.6421 9.85786 21 14 21ZM14 22.5C18.9706 22.5 23 18.4706 23 13.5C23 8.52944 18.9706 4.5 14 4.5C9.02944 4.5 5 8.52944 5 13.5C5 18.4706 9.02944 22.5 14 22.5Z" fill="black"/>
<path fill-rule="evenodd" clip-rule="evenodd" d="M24.0293 25.5L19 20.463L19.9707 19.5L25 24.537L24.0293 25.5Z" fill="black"/>
</svg>
