<svg width="30" height="30" viewBox="0 0 30 30" fill="none" xmlns="http://www.w3.org/2000/svg">
<path fill-rule="evenodd" clip-rule="evenodd" d="M16 12.5C18.2091 12.5 20 10.7091 20 8.5C20 6.29086 18.2091 4.5 16 4.5C13.7909 4.5 12 6.29086 12 8.5C12 10.7091 13.7909 12.5 16 12.5ZM16 14C19.0376 14 21.5 11.5376 21.5 8.5C21.5 5.46243 19.0376 3 16 3C12.9624 3 10.5 5.46243 10.5 8.5C10.5 11.5376 12.9624 14 16 14Z" fill="black"/>
<path fill-rule="evenodd" clip-rule="evenodd" d="M16.5476 16.5H15.4524C10.3109 16.5 6.14286 20.3056 6.14286 25V25.5H25.8571V25C25.8571 20.3056 21.6891 16.5 16.5476 16.5ZM15.4524 15C9.40355 15 4.5 19.4772 4.5 25V27H27.5V25C27.5 19.4772 22.5965 15 16.5476 15H15.4524Z" fill="black"/>
</svg>
