<svg width="30" height="30" viewBox="0 0 30 30" fill="none" xmlns="http://www.w3.org/2000/svg">
<path d="M20.5 8.5C20.5 11.5376 18.0376 14 15 14C11.9624 14 9.5 11.5376 9.5 8.5C9.5 5.46243 11.9624 3 15 3C18.0376 3 20.5 5.46243 20.5 8.5Z" fill="black"/>
<path fill-rule="evenodd" clip-rule="evenodd" d="M15 12.5C17.2091 12.5 19 10.7091 19 8.5C19 6.29086 17.2091 4.5 15 4.5C12.7909 4.5 11 6.29086 11 8.5C11 10.7091 12.7909 12.5 15 12.5ZM15 14C18.0376 14 20.5 11.5376 20.5 8.5C20.5 5.46243 18.0376 3 15 3C11.9624 3 9.5 5.46243 9.5 8.5C9.5 11.5376 11.9624 14 15 14Z" fill="black"/>
<path d="M4.5 25C4.5 19.4772 8.97715 15 14.5 15H15.5C21.0228 15 25.5 19.4772 25.5 25V27H4.5V25Z" fill="black"/>
<path fill-rule="evenodd" clip-rule="evenodd" d="M15.5 16.5H14.5C9.80558 16.5 6 20.3056 6 25V25.5H24V25C24 20.3056 20.1944 16.5 15.5 16.5ZM14.5 15C8.97715 15 4.5 19.4772 4.5 25V27H25.5V25C25.5 19.4772 21.0228 15 15.5 15H14.5Z" fill="black"/>
</svg>
