<svg viewBox="0 0 30 30" fill="none" xmlns="http://www.w3.org/2000/svg">
<path d="M6.99162 24C6.85459 23.9998 6.7191 23.971 6.59378 23.9155C6.46846 23.8601 6.35605 23.7792 6.26369 23.6779C6.16966 23.5775 6.09791 23.4584 6.05314 23.3283C6.00837 23.1982 5.9916 23.0601 6.00393 22.9231L6.24591 20.2615L17.4246 9.08372L20.9181 12.5772L9.74235 23.754L7.0815 23.996C7.05162 23.9988 7.02163 24.0001 6.99162 24ZM21.6154 11.8787L18.1229 8.38523L20.2178 6.28976C20.3096 6.1979 20.4185 6.12503 20.5384 6.07531C20.6583 6.02559 20.7868 6 20.9166 6C21.0464 6 21.175 6.02559 21.2949 6.07531C21.4148 6.12503 21.5237 6.1979 21.6154 6.28976L23.7103 8.38523C23.8022 8.47698 23.875 8.58594 23.9247 8.70588C23.9744 8.82582 24 8.95438 24 9.08421C24 9.21405 23.9744 9.34261 23.9247 9.46254C23.875 9.58248 23.8022 9.69144 23.7103 9.7832L21.6164 11.8777L21.6154 11.8787Z" fill="black"/>
</svg>
