<svg width="18" height="18" viewBox="0 0 18 18" fill="none" xmlns="http://www.w3.org/2000/svg">
<path d="M4.66801 7.88397C4.79213 7.88397 4.91117 7.93328 4.99894 8.02105C5.08671 8.10881 5.13601 8.22785 5.13601 8.35197V9.28797C5.13601 10.2809 5.53047 11.2332 6.2326 11.9354C6.93474 12.6375 7.88704 13.032 8.88001 13.032C9.87298 13.032 10.8253 12.6375 11.5274 11.9354C12.2296 11.2332 12.624 10.2809 12.624 9.28797V8.35197C12.624 8.22785 12.6733 8.10881 12.7611 8.02105C12.8489 7.93328 12.9679 7.88397 13.092 7.88397C13.2161 7.88397 13.3352 7.93328 13.4229 8.02105C13.5107 8.10881 13.56 8.22785 13.56 8.35197V9.28797C13.56 10.4482 13.1291 11.567 12.3508 12.4274C11.5725 13.2879 10.5024 13.8286 9.34801 13.9446V15.84H12.156C12.2801 15.84 12.3992 15.8893 12.4869 15.977C12.5747 16.0648 12.624 16.1839 12.624 16.308C12.624 16.4321 12.5747 16.5511 12.4869 16.6389C12.3992 16.7267 12.2801 16.776 12.156 16.776H5.60401C5.47989 16.776 5.36085 16.7267 5.27309 16.6389C5.18532 16.5511 5.13601 16.4321 5.13601 16.308C5.13601 16.1839 5.18532 16.0648 5.27309 15.977C5.36085 15.8893 5.47989 15.84 5.60401 15.84H8.41201V13.9446C7.25763 13.8286 6.18749 13.2879 5.40921 12.4274C4.63093 11.567 4.2 10.4482 4.20001 9.28797V8.35197C4.20001 8.22785 4.24932 8.10881 4.33709 8.02105C4.42485 7.93328 4.54389 7.88397 4.66801 7.88397Z" fill="black"/>
<path d="M8.88002 1.79999C8.13529 1.79999 7.42107 2.09583 6.89447 2.62243C6.36786 3.14903 6.07202 3.86326 6.07202 4.60799V9.28799C6.07202 10.0327 6.36786 10.7469 6.89447 11.2735C7.42107 11.8001 8.13529 12.096 8.88002 12.096C9.62475 12.096 10.339 11.8001 10.8656 11.2735C11.3922 10.7469 11.688 10.0327 11.688 9.28799V4.60799C11.688 3.86326 11.3922 3.14903 10.8656 2.62243C10.339 2.09583 9.62475 1.79999 8.88002 1.79999Z" fill="black"/>
</svg>
