<svg viewBox="0 0 30 30" fill="none" xmlns="http://www.w3.org/2000/svg">
<path d="M14.8484 18.8097C14.8664 18.8341 14.8894 18.8539 14.9157 18.8675C14.9419 18.8811 14.9708 18.8881 15 18.8881C15.0292 18.8881 15.0581 18.8811 15.0843 18.8675C15.1106 18.8539 15.1336 18.8341 15.1516 18.8097L17.8468 15.1866C17.9455 15.0537 17.8564 14.8568 17.6952 14.8568H15.912V6.20455C15.912 6.09205 15.8254 6 15.7195 6H14.2757C14.1698 6 14.0832 6.09205 14.0832 6.20455V14.8543H12.3048C12.1436 14.8543 12.0545 15.0511 12.1532 15.1841L14.8484 18.8097ZM23.8075 17.9148H22.3636C22.2578 17.9148 22.1711 18.0068 22.1711 18.1193V22.0568H7.82888V18.1193C7.82888 18.0068 7.74225 17.9148 7.63636 17.9148H6.19251C6.08663 17.9148 6 18.0068 6 18.1193V23.1818C6 23.6344 6.34412 24 6.77005 24H23.2299C23.6559 24 24 23.6344 24 23.1818V18.1193C24 18.0068 23.9134 17.9148 23.8075 17.9148Z" fill="white"/>
</svg>
