<svg viewBox="0 0 74 30" fill="none" xmlns="http://www.w3.org/2000/svg">
<rect width="74" height="30" rx="10" fill="#E8FE54"/>
<path d="M23.1738 20.2305H21.6699V13.5312H19.1543V17.2363H13.2754V8.81445H14.8066V11.8906H17.6641V8.81445H19.1543V12.2871H21.6699V7.85742H23.1738V20.2305ZM17.6641 16.0195V13.0801H14.8066V16.0195H17.6641ZM36.1758 15.8008H24.8828V14.5977H36.1758V15.8008ZM26.3047 16.5117H27.7949V18.7402H35.0137V19.9707H26.3047V16.5117ZM26.332 8.28125H34.8223V9.45703H27.8496V10.4141H34.5215V11.5488H27.8496V12.5332H34.918V13.6953H26.332V8.28125Z" fill="#040404"/>
<path fill-rule="evenodd" clip-rule="evenodd" d="M63.6552 11.6129L59 18.3871L54.3448 11.6129L63.6552 11.6129Z" fill="#0F0F0F"/>
</svg>
