<svg width="30" height="30" viewBox="0 0 30 30" fill="none" xmlns="http://www.w3.org/2000/svg">
<circle cx="15" cy="15" r="10" fill="white"/>
<path fill-rule="evenodd" clip-rule="evenodd" d="M18.7755 15.0003C18.7758 15.8594 18.4871 16.6926 17.9578 17.3604C17.4284 18.0283 16.6905 18.4903 15.8674 18.6693C15.0443 18.8483 14.1859 18.7334 13.4359 18.3437C12.6859 17.954 12.0896 17.3133 11.7469 16.5286L10.6114 16.9995C11.0616 18.0524 11.8531 18.9149 12.8529 19.4422C13.8527 19.9694 14.9999 20.1292 16.1015 19.8946C17.2032 19.66 18.1921 19.0454 18.9021 18.1541C19.612 17.2628 19.9997 16.1491 20 15.0003C20 13.9567 19.6802 12.9393 19.0854 12.0906C18.4906 11.2419 17.6505 10.6045 16.683 10.2676C15.7154 9.93078 14.6689 9.91144 13.69 10.2123C12.7112 10.5131 11.849 11.1191 11.2245 11.9453V10.4169H10V13.7503L10.6122 14.3753H13.4694V13.1253H11.92C12.3242 12.41 12.9483 11.8509 13.6956 11.5347C14.4428 11.2186 15.2714 11.163 16.0527 11.3767C16.834 11.5904 17.5244 12.0614 18.0168 12.7166C18.5091 13.3718 18.7758 14.1745 18.7755 15.0003Z" fill="black"/>
</svg>
