<svg width="30" height="30" viewBox="0 0 30 30" fill="none" xmlns="http://www.w3.org/2000/svg">
<path d="M24.2025 15.7259C24.023 15.5252 23.924 15.2672 23.924 15C23.924 14.7328 24.023 14.4748 24.2025 14.2741L25.6357 12.6903C25.7936 12.5173 25.8916 12.2995 25.9158 12.0684C25.9399 11.8372 25.8889 11.6044 25.77 11.4035L23.5307 7.59801C23.413 7.39731 23.2339 7.23822 23.0187 7.14342C22.8036 7.04863 22.5635 7.02296 22.3327 7.07008L20.2277 7.48802C19.9599 7.54239 19.681 7.49857 19.4438 7.36484C19.2066 7.23111 19.0274 7.01672 18.9401 6.76212L18.2571 4.74939C18.182 4.53094 18.0389 4.3412 17.848 4.20699C17.6571 4.07279 17.4282 4.0009 17.1934 4.0015H12.7148C12.4706 3.98898 12.229 4.05531 12.0268 4.19036C11.8247 4.3254 11.673 4.52175 11.5951 4.74939L10.9681 6.76212C10.8808 7.01672 10.7016 7.23111 10.4644 7.36484C10.2272 7.49857 9.94837 7.54239 9.68053 7.48802L7.51959 7.07008C7.30075 7.0397 7.07766 7.07362 6.87841 7.16757C6.67917 7.26151 6.51268 7.41128 6.39993 7.59801L4.16062 11.4035C4.03875 11.6022 3.98396 11.8336 4.00407 12.0647C4.02418 12.2959 4.11816 12.5148 4.27258 12.6903L5.69455 14.2741C5.87405 14.4748 5.97304 14.7328 5.97304 15C5.97304 15.2672 5.87405 15.5252 5.69455 15.7259L4.27258 17.3097C4.11816 17.4852 4.02418 17.7041 4.00407 17.9353C3.98396 18.1664 4.03875 18.3978 4.16062 18.5965L6.39993 22.402C6.5176 22.6027 6.69677 22.7618 6.9119 22.8566C7.12702 22.9514 7.36712 22.977 7.59797 22.9299L9.70292 22.512C9.97076 22.4576 10.2496 22.5014 10.4868 22.6352C10.724 22.7689 10.9032 22.9833 10.9905 23.2379L11.6735 25.2506C11.7514 25.4783 11.903 25.6746 12.1052 25.8096C12.3074 25.9447 12.549 26.011 12.7932 25.9985H17.2718C17.5065 25.9991 17.7355 25.9272 17.9264 25.793C18.1173 25.6588 18.2604 25.4691 18.3355 25.2506L19.0185 23.2379C19.1058 22.9833 19.285 22.7689 19.5222 22.6352C19.7594 22.5014 20.0382 22.4576 20.3061 22.512L22.411 22.9299C22.6419 22.977 22.882 22.9514 23.0971 22.8566C23.3122 22.7618 23.4914 22.6027 23.6091 22.402L25.8484 18.5965C25.9673 18.3956 26.0183 18.1628 25.9942 17.9316C25.97 17.7005 25.872 17.4827 25.714 17.3097L24.2025 15.7259ZM22.5342 17.1997L23.4299 18.1896L21.9968 20.6312L20.6756 20.3673C19.8692 20.2053 19.0303 20.3399 18.3182 20.7454C17.6062 21.1509 17.0704 21.7991 16.8127 22.567L16.3873 23.7988H13.521L13.1179 22.545C12.8602 21.7771 12.3245 21.1289 11.6124 20.7234C10.9003 20.3179 10.0615 20.1834 9.25506 20.3453L7.93386 20.6092L6.47831 18.1786L7.37403 17.1887C7.92485 16.5838 8.22938 15.8006 8.22938 14.989C8.22938 14.1774 7.92485 13.3942 7.37403 12.7893L6.47831 11.7994L7.91147 9.37976L9.23267 9.64373C10.0391 9.80565 10.8779 9.67109 11.59 9.2656C12.3021 8.8601 12.8378 8.2119 13.0955 7.44403L13.521 6.2012H16.3873L16.8127 7.45503C17.0704 8.2229 17.6062 8.8711 18.3182 9.2766C19.0303 9.68209 19.8692 9.81665 20.6756 9.65473L21.9968 9.39076L23.4299 11.8324L22.5342 12.8223C21.9896 13.4258 21.6888 14.2045 21.6888 15.011C21.6888 15.8175 21.9896 16.5961 22.5342 17.1997ZM14.9541 10.6006C14.0683 10.6006 13.2024 10.8586 12.4659 11.342C11.7294 11.8254 11.1554 12.5125 10.8164 13.3164C10.4774 14.1203 10.3887 15.0049 10.5615 15.8583C10.7344 16.7117 11.1609 17.4956 11.7872 18.1108C12.4136 18.7261 13.2116 19.1451 14.0804 19.3149C14.9491 19.4846 15.8497 19.3975 16.668 19.0645C17.4864 18.7315 18.1858 18.1677 18.678 17.4442C19.1701 16.7207 19.4327 15.8701 19.4327 15C19.4327 13.8332 18.9609 12.7142 18.121 11.8892C17.2811 11.0641 16.1419 10.6006 14.9541 10.6006ZM14.9541 17.1997C14.5112 17.1997 14.0783 17.0707 13.71 16.829C13.3418 16.5873 13.0547 16.2437 12.8853 15.8418C12.7158 15.4398 12.6714 14.9976 12.7578 14.5709C12.8442 14.1442 13.0575 13.7522 13.3707 13.4446C13.6839 13.1369 14.0829 12.9274 14.5172 12.8426C14.9516 12.7577 15.4019 12.8013 15.8111 12.9677C16.2202 13.1342 16.57 13.4162 16.816 13.7779C17.0621 14.1397 17.1934 14.5649 17.1934 15C17.1934 15.5834 16.9575 16.1429 16.5376 16.5554C16.1176 16.9679 15.548 17.1997 14.9541 17.1997Z" fill="black"/>
</svg>
