<svg width="30" height="30" viewBox="0 0 30 30" fill="none" xmlns="http://www.w3.org/2000/svg">
<path d="M6.99353 22.5L6.99244 22.5C6.92071 22.4999 6.85051 22.4856 6.78657 22.4589C6.72266 22.4322 6.66738 22.3941 6.62334 22.3485L6.62337 22.3484L6.61872 22.3437C6.57444 22.2991 6.54242 22.2479 6.52292 22.1944C6.50348 22.1411 6.49646 22.0854 6.50166 22.0305C6.50166 22.0305 6.50167 22.0304 6.50167 22.0303L6.72563 19.7039L17.4246 9.60013L20.1899 12.2118L9.5258 22.2844L7.0387 22.4981L7.03813 22.4981C7.02332 22.4994 7.00843 22.5001 6.99353 22.5ZM21.6154 10.8642L18.851 8.25271L20.5612 6.63712L20.5614 6.63693C20.6055 6.59521 20.6594 6.5607 20.7207 6.5367C20.7821 6.51268 20.8487 6.5 20.9166 6.5C20.9845 6.5 21.0512 6.51268 21.1125 6.5367C21.1738 6.56071 21.2277 6.59521 21.2719 6.63693L21.2721 6.63712L23.367 8.61617L23.3672 8.61637C23.4113 8.65799 23.4447 8.70587 23.4669 8.75647C23.489 8.80698 23.5 8.86003 23.5 8.91287C23.5 8.9657 23.489 9.01876 23.4669 9.06927C23.4447 9.11986 23.4113 9.16774 23.3672 9.20937L23.367 9.20956L21.6154 10.8642Z" stroke="black"/>
</svg>
