<svg viewBox="0 0 30 30" fill="none" xmlns="http://www.w3.org/2000/svg">
<path d="M22.5 15.625C22.6658 15.625 22.8247 15.5592 22.9419 15.4419C23.0592 15.3247 23.125 15.1658 23.125 15C23.125 14.8342 23.0592 14.6753 22.9419 14.5581C22.8247 14.4408 22.6658 14.375 22.5 14.375C22.3342 14.375 22.1753 14.4408 22.0581 14.5581C21.9408 14.6753 21.875 14.8342 21.875 15C21.875 15.1658 21.9408 15.3247 22.0581 15.4419C22.1753 15.5592 22.3342 15.625 22.5 15.625ZM15 15.625C15.1658 15.625 15.3247 15.5592 15.4419 15.4419C15.5592 15.3247 15.625 15.1658 15.625 15C15.625 14.8342 15.5592 14.6753 15.4419 14.5581C15.3247 14.4408 15.1658 14.375 15 14.375C14.8342 14.375 14.6753 14.4408 14.5581 14.5581C14.4408 14.6753 14.375 14.8342 14.375 15C14.375 15.1658 14.4408 15.3247 14.5581 15.4419C14.6753 15.5592 14.8342 15.625 15 15.625ZM7.5 15.625C7.66576 15.625 7.82473 15.5592 7.94194 15.4419C8.05915 15.3247 8.125 15.1658 8.125 15C8.125 14.8342 8.05915 14.6753 7.94194 14.5581C7.82473 14.4408 7.66576 14.375 7.5 14.375C7.33424 14.375 7.17527 14.4408 7.05806 14.5581C6.94085 14.6753 6.875 14.8342 6.875 15C6.875 15.1658 6.94085 15.3247 7.05806 15.4419C7.17527 15.5592 7.33424 15.625 7.5 15.625Z" fill="black" stroke="black" stroke-width="1.5" stroke-linecap="round" stroke-linejoin="round"/>
</svg>
