<svg width="30" height="30" viewBox="0 0 30 30" fill="none" xmlns="http://www.w3.org/2000/svg">
<path d="M15 6.25C10.168 6.25 6.25 10.168 6.25 15C6.25 19.832 10.168 23.75 15 23.75C19.832 23.75 23.75 19.832 23.75 15C23.75 10.168 19.832 6.25 15 6.25ZM15 22.2656C10.9883 22.2656 7.73438 19.0117 7.73438 15C7.73438 10.9883 10.9883 7.73438 15 7.73438C19.0117 7.73438 22.2656 10.9883 22.2656 15C22.2656 19.0117 19.0117 22.2656 15 22.2656Z" fill="black"/>
<path d="M14.0625 11.5625C14.0625 11.8111 14.1613 12.0496 14.3371 12.2254C14.5129 12.4012 14.7514 12.5 15 12.5C15.2486 12.5 15.4871 12.4012 15.6629 12.2254C15.8387 12.0496 15.9375 11.8111 15.9375 11.5625C15.9375 11.3139 15.8387 11.0754 15.6629 10.8996C15.4871 10.7238 15.2486 10.625 15 10.625C14.7514 10.625 14.5129 10.7238 14.3371 10.8996C14.1613 11.0754 14.0625 11.3139 14.0625 11.5625ZM15.4688 13.75H14.5312C14.4453 13.75 14.375 13.8203 14.375 13.9062V19.2188C14.375 19.3047 14.4453 19.375 14.5312 19.375H15.4688C15.5547 19.375 15.625 19.3047 15.625 19.2188V13.9062C15.625 13.8203 15.5547 13.75 15.4688 13.75Z" fill="black"/>
</svg>
