<svg viewBox="0 0 30 30" fill="none" xmlns="http://www.w3.org/2000/svg">
<path d="M24.7778 8.07692H21L20.1 5.58242C20.0378 5.41173 19.9239 5.26418 19.7737 5.15994C19.6236 5.0557 19.4446 4.99984 19.2611 5H10.7389C10.3639 5 10.0278 5.23352 9.90278 5.58242L9 8.07692H5.22222C3.99444 8.07692 3 9.06044 3 10.2747V22.8022C3 24.0165 3.99444 25 5.22222 25H24.7778C26.0056 25 27 24.0165 27 22.8022V10.2747C27 9.06044 26.0056 8.07692 24.7778 8.07692ZM15 20.6044C12.5444 20.6044 10.5556 18.6374 10.5556 16.2088C10.5556 13.7802 12.5444 11.8132 15 11.8132C17.4556 11.8132 19.4444 13.7802 19.4444 16.2088C19.4444 18.6374 17.4556 20.6044 15 20.6044ZM12.3333 16.2088C12.3333 16.9083 12.6143 17.5791 13.1144 18.0737C13.6145 18.5683 14.2928 18.8462 15 18.8462C15.7072 18.8462 16.3855 18.5683 16.8856 18.0737C17.3857 17.5791 17.6667 16.9083 17.6667 16.2088C17.6667 15.5093 17.3857 14.8385 16.8856 14.3439C16.3855 13.8493 15.7072 13.5714 15 13.5714C14.2928 13.5714 13.6145 13.8493 13.1144 14.3439C12.6143 14.8385 12.3333 15.5093 12.3333 16.2088Z" fill="black"/>
</svg>
