<svg width="30" height="30" viewBox="0 0 30 30" fill="none" xmlns="http://www.w3.org/2000/svg">
<path fill-rule="evenodd" clip-rule="evenodd" d="M11.5 10.5C12.3284 10.5 13 9.82843 13 9C13 8.17157 12.3284 7.5 11.5 7.5C10.6716 7.5 10 8.17157 10 9C10 9.82843 10.6716 10.5 11.5 10.5ZM11.5 12C13.1569 12 14.5 10.6569 14.5 9C14.5 7.34315 13.1569 6 11.5 6C9.84315 6 8.5 7.34315 8.5 9C8.5 10.6569 9.84315 12 11.5 12Z" fill="black"/>
<path fill-rule="evenodd" clip-rule="evenodd" d="M11.5 22.5C12.3284 22.5 13 21.8284 13 21C13 20.1716 12.3284 19.5 11.5 19.5C10.6716 19.5 10 20.1716 10 21C10 21.8284 10.6716 22.5 11.5 22.5ZM11.5 24C13.1569 24 14.5 22.6569 14.5 21C14.5 19.3431 13.1569 18 11.5 18C9.84315 18 8.5 19.3431 8.5 21C8.5 22.6569 9.84315 24 11.5 24Z" fill="black"/>
<path fill-rule="evenodd" clip-rule="evenodd" d="M20.5 13.5C19.6716 13.5 19 14.1716 19 15C19 15.8284 19.6716 16.5 20.5 16.5C21.3284 16.5 22 15.8284 22 15C22 14.1716 21.3284 13.5 20.5 13.5ZM20.5 12C18.8431 12 17.5 13.3431 17.5 15C17.5 16.6569 18.8431 18 20.5 18C22.1569 18 23.5 16.6569 23.5 15C23.5 13.3431 22.1569 12 20.5 12Z" fill="black"/>
<path fill-rule="evenodd" clip-rule="evenodd" d="M9 9.75H3V8.25H9V9.75Z" fill="black"/>
<path fill-rule="evenodd" clip-rule="evenodd" d="M9 21.75H3V20.25H9V21.75Z" fill="black"/>
<path fill-rule="evenodd" clip-rule="evenodd" d="M23 14.25L26.5 14.25L26.5 15.75L23 15.75L23 14.25Z" fill="black"/>
<path fill-rule="evenodd" clip-rule="evenodd" d="M26.5 9.75H14V8.25H26.5V9.75Z" fill="black"/>
<path fill-rule="evenodd" clip-rule="evenodd" d="M26.5 21.75H14V20.25H26.5V21.75Z" fill="black"/>
<path fill-rule="evenodd" clip-rule="evenodd" d="M3 14.25L18 14.25L18 15.75L3 15.75L3 14.25Z" fill="black"/>
</svg>
